<?xml version="1.0" ?><svg viewBox="0 0 409.22 325.09" xmlns="http://www.w3.org/2000/svg"><defs><style>.cls-1{fill:none;stroke:#050505;stroke-miterlimit:10;stroke-width:10px;}</style></defs><title/><g data-name="Layer 2" id="Layer_2"><g data-name="Layer 1" id="Layer_1-2"><path class="cls-1" d="M5,121.91v156.2a8.25,8.25,0,0,0,8.25,8.25H396a8.25,8.25,0,0,0,8.25-8.25V76.4A8.25,8.25,0,0,0,396,68.15H13.25A8.26,8.26,0,0,0,5,76.4v23.85"/><path class="cls-1" d="M305,320.09H42.25a11.37,11.37,0,0,1-11.37-11.37V286.36H378.34v22.36A11.37,11.37,0,0,1,367,320.09H326.65"/><circle class="cls-1" cx="111.29" cy="178.84" r="54.55"/><circle class="cls-1" cx="297.92" cy="178.84" r="54.55"/><line class="cls-1" x1="404.23" x2="352.43" y1="177.26" y2="177.26"/><line class="cls-1" x1="243.4" x2="165.8" y1="177.26" y2="177.26"/><line class="cls-1" x1="56.77" x2="5" y1="177.26" y2="177.26"/><polyline class="cls-1" points="111.29 158.88 111.29 178.84 126.22 193.76"/><polyline class="cls-1" points="312.04 164.73 297.92 178.84 297.92 199.94"/><path class="cls-1" d="M38.77,68.15V39.6c0-7.06,7.73-12.78,17.28-12.78H219.92a23.12,23.12,0,0,0,3.84-.32L349.34,5.32c10.81-1.82,21.11,4.26,21.11,12.46V68.15"/><line class="cls-1" x1="204.61" x2="204.61" y1="68.15" y2="26.81"/><path class="cls-1" d="M352.43,92.66h24.92a1,1,0,0,1,1,1v27"/></g></g></svg>